<svg width="490" height="490" xmlns="http://www.w3.org/2000/svg">
 <g>
  <title>Layer 1</title>
  <rect rx="15" id="svg_1" height="339" width="62" y="76.00172" x="168.2516" fill="#191919"/>
  <path id="svg_3" d="m169.00105,88.25122c0,-8.15069 6.84932,-15 15,-15l38,0c8.15068,0 15,6.84931 15,15l0,175.99997c0,8.15073 -6.05957,14.30185 -15,15l-38,0c-8.15068,0 -15,-6.84927 -15,-15l0,-175.99997z" transform="rotate(59.9106 203.001 176.251)" opacity="undefined" stroke="null" fill="#191919"/>
  <path id="svg_5" d="m213.87936,150.82314c0,-5.43379 4.56621,-10 10,-10l42.00003,0c5.43378,0 10,4.56621 10,10l-0.64267,212.29356c-2.04373,10.72937 -3.92355,10.83548 -9.35733,10.83548l-42.00003,0c-5.43379,0 -10,-4.56622 -10,-10l0,-213.12904z" transform="rotate(-70.8658 244.879 257.388)" opacity="undefined" stroke="null" fill="#191919"/>
  <path id="svg_4" d="m250.03525,250.94276c-1.29109,-6.58736 6.84933,-15 15,-15l38,0c8.1507,0 15,6.84932 15,15l0,175.99998c0,8.1507 -6.8493,15 -15,15l-38,0c-8.15067,0 -15,-6.8493 -15,-15l0,-175.99998z" transform="rotate(59.9106 283.967 338.943)" opacity="undefined" fill="#191919"/>
 </g>

</svg>